<?xml version="1.0" encoding="UTF-8"?>
<svg version="1.1" xmlns="http://www.w3.org/2000/svg" width="500" height="500">
<path d="M0 0 C165 0 330 0 500 0 C500 165 500 330 500 500 C335 500 170 500 0 500 C0 335 0 170 0 0 Z " fill="#FEFEFE" transform="translate(0,0)"/>
<path d="M0 0 C0.87603882 -0.00540298 1.75207764 -0.01080597 2.65466309 -0.01637268 C5.52200133 -0.02877949 8.38831962 -0.01242426 11.25561523 0.00561523 C13.26383008 0.00546007 15.27204523 0.00396826 17.28025818 0.00120544 C21.47717623 -0.0001749 25.67375103 0.01231957 29.87060547 0.03515625 C35.23597506 0.06355791 40.60077565 0.06079356 45.96618748 0.04806614 C50.10903235 0.04109456 54.25174689 0.04891485 58.39457512 0.06132317 C60.37242062 0.06582199 62.35028019 0.06618826 64.32812691 0.06225777 C67.09664485 0.05933054 69.86439223 0.07592383 72.6328125 0.09765625 C73.84483589 0.09090378 73.84483589 0.09090378 75.0813446 0.08401489 C80.58116521 0.15534553 84.69411088 1.32721156 89.75170898 3.50170898 C89.75170898 4.16170898 89.75170898 4.82170898 89.75170898 5.50170898 C90.41170898 5.50170898 91.07170898 5.50170898 91.75170898 5.50170898 C95.17390832 8.5698877 97.4878447 11.46509929 98.62670898 15.93920898 C98.66795898 16.78483398 98.70920898 17.63045898 98.75170898 18.50170898 C99.41170898 18.50170898 100.07170898 18.50170898 100.75170898 18.50170898 C101.08170898 41.60170898 101.41170898 64.70170898 101.75170898 88.50170898 C107.03170898 91.14170898 112.31170898 93.78170898 117.75170898 96.50170898 C118.08170898 97.49170898 118.41170898 98.48170898 118.75170898 99.50170898 C119.74170898 99.83170898 120.73170898 100.16170898 121.75170898 100.50170898 C122.08170898 101.16170898 122.41170898 101.82170898 122.75170898 102.50170898 C123.59733398 102.99670898 124.44295898 103.49170898 125.31420898 104.00170898 C126.11858398 104.49670898 126.92295898 104.99170898 127.75170898 105.50170898 C127.75170898 106.16170898 127.75170898 106.82170898 127.75170898 107.50170898 C128.55608398 107.59452148 128.55608398 107.59452148 129.37670898 107.68920898 C136.12842471 109.99900647 140.29387654 116.4244744 144.57202148 121.78295898 C146.37563584 124.03262851 148.22061758 126.21457545 150.12670898 128.37670898 C153.01391285 131.72650353 155.20059023 135.02057732 156.75170898 139.18920898 C157.64083728 141.82034867 157.64083728 141.82034867 160.75170898 143.50170898 C161.70092773 145.56030273 161.70092773 145.56030273 162.43920898 147.93920898 C162.69057617 148.72166992 162.94194336 149.50413086 163.20092773 150.31030273 C163.75170898 152.50170898 163.75170898 152.50170898 163.75170898 155.50170898 C164.41170898 155.50170898 165.07170898 155.50170898 165.75170898 155.50170898 C167.00835876 158.4077116 167.75170898 160.29775483 167.75170898 163.50170898 C168.41170898 163.50170898 169.07170898 163.50170898 169.75170898 163.50170898 C174.23946686 177.88980689 177.88706342 191.36134846 177.75170898 206.50170898 C178.8905957 206.5577832 178.8905957 206.5577832 180.05249023 206.61499023 C181.04635742 206.68073242 182.04022461 206.74647461 183.06420898 206.81420898 C184.0503418 206.8722168 185.03647461 206.93022461 186.05249023 206.98999023 C189.03782976 207.55595185 190.04773688 208.01483078 191.75170898 210.50170898 C191.93920898 214.18920898 191.93920898 214.18920898 191.75170898 217.50170898 C187.36322682 219.96354044 183.72227806 220.89294725 178.75170898 221.50170898 C178.56995117 222.61545898 178.38819336 223.72920898 178.20092773 224.87670898 C176.51903443 235.11245672 174.70855265 245.31501926 172.75170898 255.50170898 C172.09170898 255.50170898 171.43170898 255.50170898 170.75170898 255.50170898 C170.66276367 256.66057617 170.57381836 257.81944336 170.48217773 259.01342773 C169.89769205 263.65157154 168.2538348 267.22694109 166.06420898 271.31420898 C165.70407715 272.00780518 165.34394531 272.70140137 164.97290039 273.41601562 C163.91133274 275.45127592 162.83301919 277.4768875 161.75170898 279.50170898 C161.20643555 280.54584961 160.66116211 281.58999023 160.09936523 282.66577148 C153.74877348 294.62577188 153.74877348 294.62577188 149.75170898 299.50170898 C149.09170898 299.50170898 148.43170898 299.50170898 147.75170898 299.50170898 C147.46295898 300.07920898 147.17420898 300.65670898 146.87670898 301.25170898 C146.50545898 301.99420898 146.13420898 302.73670898 145.75170898 303.50170898 C145.46682617 304.1475293 145.18194336 304.79334961 144.88842773 305.45874023 C143.64673454 307.69037439 142.42330772 308.85105013 140.43920898 310.43920898 C136.72389886 313.49796742 133.34448319 316.79095151 130.06420898 320.31420898 C128.75170898 321.50170898 128.75170898 321.50170898 126.75170898 321.50170898 C126.75170898 322.16170898 126.75170898 322.82170898 126.75170898 323.50170898 C124.77514648 325.08764648 124.77514648 325.08764648 122.12670898 326.87670898 C121.20889648 327.50061523 120.29108398 328.12452148 119.34545898 328.76733398 C118.48952148 329.33967773 117.63358398 329.91202148 116.75170898 330.50170898 C115.72045898 331.20295898 114.68920898 331.90420898 113.62670898 332.62670898 C112.67795898 333.24545898 111.72920898 333.86420898 110.75170898 334.50170898 C110.06850586 334.94772461 109.38530273 335.39374023 108.68139648 335.85327148 C107.60245117 336.54549805 107.60245117 336.54549805 106.50170898 337.25170898 C105.50397461 337.89366211 105.50397461 337.89366211 104.48608398 338.54858398 C102.75170898 339.50170898 102.75170898 339.50170898 100.75170898 339.50170898 C100.76170174 340.77504845 100.76170174 340.77504845 100.77189636 342.07411194 C100.83212276 350.09219936 100.87774188 358.1102103 100.9071455 366.12847233 C100.92277064 370.25029754 100.94395088 374.37193511 100.97802734 378.49365234 C101.01073385 382.47479014 101.02858569 386.45574798 101.03634071 390.43700981 C101.04186404 391.95239531 101.05264968 393.46777147 101.06889915 394.98307991 C101.09082441 397.11328181 101.09366975 399.24274947 101.09228516 401.37304688 C101.10227791 403.18839684 101.10227791 403.18839684 101.11247253 405.04042053 C100.6873466 409.11922367 99.52962043 411.82922264 97.75170898 415.50170898 C97.09170898 415.50170898 96.43170898 415.50170898 95.75170898 415.50170898 C95.09170898 417.15170898 94.43170898 418.80170898 93.75170898 420.50170898 C93.09170898 420.50170898 92.43170898 420.50170898 91.75170898 420.50170898 C91.75170898 421.16170898 91.75170898 421.82170898 91.75170898 422.50170898 C82.56576236 429.16145635 72.42454264 428.19575862 61.62280273 428.09545898 C59.66325453 428.09374519 57.70370404 428.0938163 55.74415588 428.09558105 C51.65147758 428.09393366 47.55935089 428.07534123 43.46679688 428.04370117 C38.23941423 428.00399953 33.01275171 427.99966284 27.78524685 428.007164 C23.74357082 428.01024348 19.70205454 427.99807884 15.66041756 427.98103333 C13.73364324 427.97403811 11.80685084 427.97087454 9.88006401 427.97172546 C7.18127 427.96991371 4.48331543 427.94841605 1.78466797 427.92163086 C1.00052017 427.92456146 0.21637238 427.92749207 -0.59153748 427.93051147 C-7.4653546 427.8260411 -13.79456952 426.58203808 -19.12329102 422.06420898 C-19.82454102 421.21858398 -20.52579102 420.37295898 -21.24829102 419.50170898 C-21.78454102 418.86233398 -22.32079102 418.22295898 -22.87329102 417.56420898 C-26.24930986 412.50018071 -27.62108607 408.66629795 -27.58544922 402.55004883 C-27.58628006 401.54887779 -27.58628006 401.54887779 -27.58712769 400.52748108 C-27.58686916 399.08866255 -27.58005126 397.64983294 -27.56728554 396.21107101 C-27.54882781 393.93246854 -27.55159978 391.65478032 -27.56034851 389.37612915 C-27.58210905 382.9018927 -27.57113418 376.42801384 -27.53320312 369.95385742 C-27.5114269 365.98497444 -27.51861614 362.01699552 -27.54366112 358.04814529 C-27.54725461 356.53866668 -27.53959165 355.02911733 -27.52041054 353.51975632 C-27.49410855 351.41034534 -27.50448744 349.30400672 -27.52294922 347.19458008 C-27.51603813 345.39638321 -27.51603813 345.39638321 -27.50898743 343.56185913 C-27.98669476 340.23420417 -27.98669476 340.23420417 -31.11393738 338.16152954 C-33.79358512 336.74250191 -36.39134637 335.51004239 -39.24829102 334.50170898 C-39.24829102 333.84170898 -39.24829102 333.18170898 -39.24829102 332.50170898 C-40.51672852 332.19233398 -40.51672852 332.19233398 -41.81079102 331.87670898 C-45.54980987 330.38110144 -47.73929969 328.56418588 -50.63500977 325.84155273 C-52.32216017 324.27550583 -52.32216017 324.27550583 -55.24829102 323.50170898 C-56.57250977 322.11889648 -56.57250977 322.11889648 -57.93579102 320.37670898 C-60.81310942 316.86479404 -63.99515651 314.03477751 -67.51391602 311.17749023 C-69.34515621 309.40811626 -70.25455536 307.82887564 -71.24829102 305.50170898 C-71.90829102 305.50170898 -72.56829102 305.50170898 -73.24829102 305.50170898 C-74.43188477 303.89233398 -74.43188477 303.89233398 -75.68579102 301.75170898 C-77.07035923 299.43317168 -78.41978645 297.27699083 -80.06079102 295.12670898 C-81.24829102 293.50170898 -81.24829102 293.50170898 -81.24829102 291.50170898 C-81.90829102 291.50170898 -82.56829102 291.50170898 -83.24829102 291.50170898 C-85.28998586 288.59622016 -86.24829102 287.10028853 -86.24829102 283.50170898 C-87.23829102 283.17170898 -88.22829102 282.84170898 -89.24829102 282.50170898 C-90.58446081 279.8293694 -91.32287692 277.20910276 -92.06079102 274.31420898 C-93.03847836 271.17531804 -94.06780793 268.88681015 -95.61938477 266.04467773 C-98.56754706 260.22553017 -100.06925441 254.34017779 -101.49829102 248.00170898 C-101.75352539 246.93823242 -102.00875977 245.87475586 -102.27172852 244.77905273 C-104.59226649 234.82516616 -105.44497711 225.20470769 -105.43579102 215.00170898 C-105.43498535 214.05336182 -105.43417969 213.10501465 -105.43334961 212.12792969 C-105.28005362 194.15773184 -102.74366877 176.94218776 -95.24829102 160.50170898 C-94.78036133 159.47432617 -94.31243164 158.44694336 -93.83032227 157.38842773 C-91.38175442 152.04994524 -88.8971698 146.74428158 -86.24829102 141.50170898 C-85.58829102 141.50170898 -84.92829102 141.50170898 -84.24829102 141.50170898 C-84.16579102 140.80045898 -84.08329102 140.09920898 -83.99829102 139.37670898 C-83.06820096 135.81136378 -81.48142733 133.41155327 -79.24829102 130.50170898 C-78.58829102 130.50170898 -77.92829102 130.50170898 -77.24829102 130.50170898 C-76.98274414 129.76694336 -76.71719727 129.03217773 -76.44360352 128.27514648 C-73.07554604 120.4603726 -66.69240441 114.8086259 -60.24829102 109.50170898 C-58.39495984 107.8591488 -56.54286876 106.21525149 -54.69360352 104.56811523 C-53.24829102 103.50170898 -53.24829102 103.50170898 -51.24829102 103.50170898 C-51.24829102 102.84170898 -51.24829102 102.18170898 -51.24829102 101.50170898 C-50.25829102 101.17170898 -49.26829102 100.84170898 -48.24829102 100.50170898 C-47.24108149 99.50897086 -46.24235645 98.50760853 -45.24829102 97.50170898 C-43.52790961 96.27169107 -41.77420166 95.08759813 -39.99829102 93.93920898 C-39.08563477 93.33979492 -38.17297852 92.74038086 -37.23266602 92.12280273 C-33.97008008 90.35058655 -30.8213661 89.47079898 -27.24829102 88.50170898 C-27.25717346 87.64472916 -27.26605591 86.78774933 -27.27520752 85.90480042 C-27.35560419 77.79906408 -27.41638229 69.69346311 -27.4555397 61.58741856 C-27.4763483 57.42073516 -27.50454139 53.25438328 -27.55004883 49.08789062 C-27.59374879 45.0613425 -27.61747863 41.03511176 -27.62779999 37.00834465 C-27.63514833 35.4778437 -27.64949734 33.94735865 -27.67121124 32.41699409 C-27.90247405 15.43085136 -27.90247405 15.43085136 -23.24829102 9.50170898 C-21.9149616 8.83503448 -20.58162858 8.16836719 -19.24829102 7.50170898 C-18.91829102 6.51170898 -18.58829102 5.52170898 -18.24829102 4.50170898 C-12.53274824 0.72586746 -6.68782745 -0.08022134 0 0 Z " fill="#99E46F" transform="translate(207.248291015625,36.498291015625)"/>
<path d="M0 0 C0.69799713 -0.00095673 1.39599426 -0.00191345 2.11514282 -0.00289917 C3.57562349 -0.00357453 5.03610727 -0.00176559 6.49658203 0.00244141 C8.74127807 0.00784794 10.98577844 0.00244988 13.23046875 -0.00390625 C14.65364628 -0.00324631 16.07682368 -0.00196689 17.5 0 C19.43625244 0.00169189 19.43625244 0.00169189 21.41162109 0.00341797 C24.3515625 0.1328125 24.3515625 0.1328125 25.3515625 1.1328125 C27.61596874 1.60244497 29.8885868 2.03263757 32.1640625 2.4453125 C42.15258009 4.35430339 51.3747372 7.29913734 60.3515625 12.1328125 C60.3515625 12.7928125 60.3515625 13.4528125 60.3515625 14.1328125 C61.0321875 14.3803125 61.7128125 14.6278125 62.4140625 14.8828125 C65.89479578 16.3639756 69.13564818 18.15279282 72.3515625 20.1328125 C73.24359375 20.67164063 74.135625 21.21046875 75.0546875 21.765625 C79.40227957 24.68754344 82.98204974 28.43404808 86.6640625 32.1328125 C87.39173828 32.844375 88.11941406 33.5559375 88.86914062 34.2890625 C89.90651367 35.32546875 89.90651367 35.32546875 90.96484375 36.3828125 C91.90517456 37.31867188 91.90517456 37.31867188 92.86450195 38.2734375 C94.3515625 40.1328125 94.3515625 40.1328125 94.87573242 42.3046875 C95.03275635 42.90796875 95.18978027 43.51125 95.3515625 44.1328125 C96.3415625 44.4628125 97.3315625 44.7928125 98.3515625 45.1328125 C98.6815625 46.7828125 99.0115625 48.4328125 99.3515625 50.1328125 C100.3415625 50.4628125 101.3315625 50.7928125 102.3515625 51.1328125 C102.3515625 51.7928125 102.3515625 52.4528125 102.3515625 53.1328125 C103.3415625 53.4628125 104.3315625 53.7928125 105.3515625 54.1328125 C108.2797206 58.52504965 110.01184318 62.79593206 111.56640625 67.81640625 C112.36330112 70.16744435 113.34417002 72.33182896 114.4140625 74.5703125 C117.89872673 82.24725477 118.62087857 89.78401423 118.3515625 98.1328125 C119.0115625 98.1328125 119.6715625 98.1328125 120.3515625 98.1328125 C121.17049947 127.81297815 121.17049947 127.81297815 116.95019531 141.20605469 C116.31987225 143.23481064 115.76616679 145.2755484 115.21875 147.328125 C113.14249255 154.8417015 110.4753665 161.25585411 106 167.71484375 C103.73616404 171.03549413 102.06385635 174.50274954 100.3515625 178.1328125 C99.6915625 178.1328125 99.0315625 178.1328125 98.3515625 178.1328125 C98.01125 178.9371875 98.01125 178.9371875 97.6640625 179.7578125 C94.80471396 184.93187176 90.55467738 189.0374698 86.3515625 193.1328125 C85.330625 194.1846875 85.330625 194.1846875 84.2890625 195.2578125 C79.2515625 200.1328125 79.2515625 200.1328125 76.3515625 200.1328125 C76.3515625 200.7928125 76.3515625 201.4528125 76.3515625 202.1328125 C75.3615625 202.4628125 74.3715625 202.7928125 73.3515625 203.1328125 C72.5471875 203.9578125 71.7428125 204.7828125 70.9140625 205.6328125 C68.51460774 207.97374398 67.58022136 208.77407263 64.3515625 209.1328125 C64.3515625 209.7928125 64.3515625 210.4528125 64.3515625 211.1328125 C37.59186599 224.9140562 6.5632642 230.33055534 -22.86083984 221.46630859 C-27.54702981 219.89722949 -32.09072215 218.03858286 -36.6484375 216.1328125 C-38.50244329 215.44487877 -40.35658679 214.75731593 -42.2109375 214.0703125 C-46.55564289 212.32950462 -49.92207345 209.9465976 -53.6484375 207.1328125 C-54.6384375 206.8028125 -55.6284375 206.4728125 -56.6484375 206.1328125 C-57.3084375 205.1428125 -57.9684375 204.1528125 -58.6484375 203.1328125 C-60.61596578 202.07034723 -62.61431329 201.06143442 -64.6484375 200.1328125 C-64.6484375 199.4728125 -64.6484375 198.8128125 -64.6484375 198.1328125 C-65.3084375 198.1328125 -65.9684375 198.1328125 -66.6484375 198.1328125 C-68.1640625 196.55859375 -68.1640625 196.55859375 -69.8984375 194.4453125 C-72.14614134 191.77822576 -74.32823113 189.45573358 -77.0859375 187.3203125 C-77.9315625 186.5984375 -78.7771875 185.8765625 -79.6484375 185.1328125 C-79.6484375 184.1428125 -79.6484375 183.1528125 -79.6484375 182.1328125 C-80.3084375 182.1328125 -80.9684375 182.1328125 -81.6484375 182.1328125 C-84.6484375 178.67127404 -84.6484375 178.67127404 -84.6484375 176.1328125 C-85.3084375 176.1328125 -85.9684375 176.1328125 -86.6484375 176.1328125 C-87.48608018 174.17631853 -88.31842809 172.21755694 -89.1484375 170.2578125 C-89.6125 169.16726563 -90.0765625 168.07671875 -90.5546875 166.953125 C-91.6484375 164.1328125 -91.6484375 164.1328125 -91.6484375 162.1328125 C-92.3084375 162.1328125 -92.9684375 162.1328125 -93.6484375 162.1328125 C-102.01392743 147.49320513 -104.04329383 129.60261314 -103.9609375 113.0078125 C-103.95674805 111.84072754 -103.95255859 110.67364258 -103.94824219 109.47119141 C-103.77887279 96.34506308 -103.04382589 82.86966759 -96.6484375 71.1328125 C-95.92771297 69.55508099 -95.21949411 67.97158113 -94.5234375 66.3828125 C-94.18957031 65.63773437 -93.85570312 64.89265625 -93.51171875 64.125 C-92.85488066 62.60921978 -92.26655728 61.06354789 -91.7109375 59.5078125 C-90.42742444 56.6387833 -88.68419145 54.34975437 -86.80859375 51.83984375 C-85.48834403 50.04017809 -85.48834403 50.04017809 -84.5859375 47.3203125 C-83.40439083 44.56337027 -82.28784251 44.3700336 -79.6484375 43.1328125 C-78.59822647 41.28309554 -78.59822647 41.28309554 -77.6484375 39.1328125 C-75.6484375 36.3828125 -75.6484375 36.3828125 -73.6484375 34.1328125 C-72.9884375 34.1328125 -72.3284375 34.1328125 -71.6484375 34.1328125 C-70.9884375 32.8128125 -70.3284375 31.4928125 -69.6484375 30.1328125 C-68.9884375 30.1328125 -68.3284375 30.1328125 -67.6484375 30.1328125 C-67.6484375 29.4728125 -67.6484375 28.8128125 -67.6484375 28.1328125 C-65.66243413 26.7787193 -63.66026207 25.44823626 -61.6484375 24.1328125 C-60.9059375 23.3903125 -60.1634375 22.6478125 -59.3984375 21.8828125 C-58.8209375 21.3053125 -58.2434375 20.7278125 -57.6484375 20.1328125 C-56.9884375 20.1328125 -56.3284375 20.1328125 -55.6484375 20.1328125 C-55.6484375 19.4728125 -55.6484375 18.8128125 -55.6484375 18.1328125 C-54.3284375 18.1328125 -53.0084375 18.1328125 -51.6484375 18.1328125 C-51.1534375 16.6478125 -51.1534375 16.6478125 -50.6484375 15.1328125 C-48.93927346 14.34396756 -47.22331073 13.56474703 -45.46875 12.8828125 C-43.4929968 12.1296809 -43.4929968 12.1296809 -41.2734375 10.6328125 C-38.38559709 8.98261798 -35.6074968 8.02090503 -32.4453125 7.0234375 C-30.27957877 6.33379045 -28.12538568 5.6078457 -25.9765625 4.8671875 C-25.3254248 4.64337402 -24.67428711 4.41956055 -24.00341797 4.18896484 C-22.10051277 3.53432791 -20.19867049 2.87660379 -18.296875 2.21875 C-12.19944557 0.40388342 -6.3403707 0.00551131 0 0 Z " fill="#ECFDEC" transform="translate(235.6484375,137.8671875)"/>
<path d="M0 0 C0.87603882 -0.00540298 1.75207764 -0.01080597 2.65466309 -0.01637268 C5.52200133 -0.02877949 8.38831962 -0.01242426 11.25561523 0.00561523 C13.26383008 0.00546007 15.27204523 0.00396826 17.28025818 0.00120544 C21.47717623 -0.0001749 25.67375103 0.01231957 29.87060547 0.03515625 C35.23597506 0.06355791 40.60077565 0.06079356 45.96618748 0.04806614 C50.10903235 0.04109456 54.25174689 0.04891485 58.39457512 0.06132317 C60.37242062 0.06582199 62.35028019 0.06618826 64.32812691 0.06225777 C67.09664485 0.05933054 69.86439223 0.07592383 72.6328125 0.09765625 C73.84483589 0.09090378 73.84483589 0.09090378 75.0813446 0.08401489 C80.58116521 0.15534553 84.69411088 1.32721156 89.75170898 3.50170898 C89.75170898 4.16170898 89.75170898 4.82170898 89.75170898 5.50170898 C90.41170898 5.50170898 91.07170898 5.50170898 91.75170898 5.50170898 C93.18920898 6.82202148 93.18920898 6.82202148 94.75170898 8.62670898 C95.26733398 9.20678711 95.78295898 9.78686523 96.31420898 10.38452148 C100.11015079 15.9752836 100.0303623 21.56953513 99.93920898 28.06420898 C99.93276367 29.0484082 99.92631836 30.03260742 99.91967773 31.04663086 C99.74327254 49.86685986 99.21228346 68.68675171 98.75170898 87.50170898 C98.09170898 87.50170898 97.43170898 87.50170898 96.75170898 87.50170898 C96.75170898 86.84170898 96.75170898 86.18170898 96.75170898 85.50170898 C94.73347982 85.04597982 92.71525065 84.59025065 90.69702148 84.13452148 C88.75170898 83.50170898 88.75170898 83.50170898 86.75170898 81.50170898 C64.19640896 72.118657 38.67291919 73.69404699 14.75170898 73.50170898 C14.75170898 74.16170898 14.75170898 74.82170898 14.75170898 75.50170898 C13.37112305 75.63125977 13.37112305 75.63125977 11.96264648 75.76342773 C2.60737071 76.80184429 -5.43969232 79.06711392 -14.24829102 82.50170898 C-15.97312311 83.097737 -17.70174877 83.68303277 -19.43579102 84.25170898 C-20.1099707 84.47342773 -20.78415039 84.69514648 -21.47875977 84.92358398 C-22.06270508 85.11436523 -22.64665039 85.30514648 -23.24829102 85.50170898 C-24.73329102 85.99670898 -24.73329102 85.99670898 -26.24829102 86.50170898 C-26.54650733 74.61747149 -26.82699063 62.73304344 -27.07206726 50.84757996 C-27.15906544 46.63386223 -27.2471334 42.42038596 -27.36010742 38.20727539 C-27.4460194 34.90957696 -27.50836664 31.61257586 -27.56079102 28.31420898 C-27.59043945 27.41702148 -27.62008789 26.51983398 -27.65063477 25.59545898 C-27.70565729 19.69887859 -26.65306301 14.43826398 -23.24829102 9.50170898 C-21.92135072 8.82240665 -20.58846034 8.15452474 -19.24829102 7.50170898 C-18.91829102 6.51170898 -18.58829102 5.52170898 -18.24829102 4.50170898 C-12.53274824 0.72586746 -6.68782745 -0.08022134 0 0 Z " fill="#7EDD4E" transform="translate(207.248291015625,36.498291015625)"/>
<path d="M0 0 C0.66 0 1.32 0 2 0 C3.09069443 41.62043545 3.09069443 41.62043545 3.1875 59.4375 C3.20683594 61.1376123 3.20683594 61.1376123 3.2265625 62.87207031 C3.22785156 63.90299805 3.22914063 64.93392578 3.23046875 65.99609375 C3.23457764 66.87450928 3.23868652 67.7529248 3.24291992 68.65795898 C2.98061103 71.18693308 2.27415379 72.81875728 1 75 C0.34 75 -0.32 75 -1 75 C-1.66 76.65 -2.32 78.3 -3 80 C-3.66 80 -4.32 80 -5 80 C-5 80.66 -5 81.32 -5 82 C-14.18594663 88.65974737 -24.32716634 87.69404964 -35.12890625 87.59375 C-37.08845445 87.5920362 -39.04800494 87.59210731 -41.0075531 87.59387207 C-45.1002314 87.59222467 -49.19235809 87.57363225 -53.28491211 87.54199219 C-58.51229476 87.50229055 -63.73895728 87.49795386 -68.96646214 87.50545502 C-73.00813816 87.5085345 -77.04965444 87.49636986 -81.09129143 87.47932434 C-83.01806574 87.47232913 -84.94485815 87.46916555 -86.87164497 87.47001648 C-89.57043899 87.46820472 -92.26839355 87.44670706 -94.96704102 87.41992188 C-95.75118881 87.42285248 -96.53533661 87.42578308 -97.34324646 87.42880249 C-104.21706359 87.32433211 -110.5462785 86.08032909 -115.875 81.5625 C-116.57625 80.716875 -117.2775 79.87125 -118 79 C-118.804375 78.0409375 -118.804375 78.0409375 -119.625 77.0625 C-123.7174674 70.9237989 -124.41535502 66.51295966 -124.25 59.3125 C-124.23904297 58.32314453 -124.22808594 57.33378906 -124.21679688 56.31445312 C-124.17598416 53.29253794 -124.11749018 50.27148749 -124.05004883 47.25006104 C-123.99384377 44.72323263 -123.94119588 42.19634113 -123.88867188 39.66943359 C-123.62463213 27.11212794 -123.32318065 14.55591207 -123 2 C-122.34 1.67 -121.68 1.34 -121 1 C-121 1.66 -121 2.32 -121 3 C-120.29488281 2.78472656 -119.58976563 2.56945312 -118.86328125 2.34765625 C-115.22812471 1.90627981 -113.44466847 2.82853726 -110.1875 4.4375 C-109.21167969 4.91058594 -108.23585937 5.38367188 -107.23046875 5.87109375 C-106.49441406 6.24363281 -105.75835937 6.61617188 -105 7 C-105 7.66 -105 8.32 -105 9 C-103.989375 8.938125 -102.97875 8.87625 -101.9375 8.8125 C-98.27250076 8.98702377 -96.17186456 9.68335404 -92.90551758 11.20532227 C-84.4441793 14.73404182 -75.10944229 14.27259691 -66.125 14.1875 C-64.19720703 14.1865332 -64.19720703 14.1865332 -62.23046875 14.18554688 C-49.40865634 15.16090717 -49.40865634 15.16090717 -38 12 C-35.81731875 11.67422668 -33.62840726 11.38986047 -31.4375 11.125 C-26.64875086 10.47198875 -22.4514221 9.68935998 -18.01953125 7.796875 C-13.81303888 6.13705983 -9.37225966 5.13325113 -5 4 C-5 3.34 -5 2.68 -5 2 C-3.35 2 -1.7 2 0 2 C0 1.34 0 0.68 0 0 Z " fill="#7EDD4E" transform="translate(304,377)"/>
<path d="M0 0 C0.87603882 -0.00540298 1.75207764 -0.01080597 2.65466309 -0.01637268 C5.52200133 -0.02877949 8.38831962 -0.01242426 11.25561523 0.00561523 C13.26383008 0.00546007 15.27204523 0.00396826 17.28025818 0.00120544 C21.47717623 -0.0001749 25.67375103 0.01231957 29.87060547 0.03515625 C35.23597506 0.06355791 40.60077565 0.06079356 45.96618748 0.04806614 C50.10903235 0.04109456 54.25174689 0.04891485 58.39457512 0.06132317 C60.37242062 0.06582199 62.35028019 0.06618826 64.32812691 0.06225777 C67.09664485 0.05933054 69.86439223 0.07592383 72.6328125 0.09765625 C73.84483589 0.09090378 73.84483589 0.09090378 75.0813446 0.08401489 C80.58116521 0.15534553 84.69411088 1.32721156 89.75170898 3.50170898 C89.75170898 4.16170898 89.75170898 4.82170898 89.75170898 5.50170898 C90.41170898 5.50170898 91.07170898 5.50170898 91.75170898 5.50170898 C93.18920898 6.82202148 93.18920898 6.82202148 94.75170898 8.62670898 C95.26733398 9.20678711 95.78295898 9.78686523 96.31420898 10.38452148 C100.53089395 16.59496511 99.99215477 23.1657879 99.87670898 30.37670898 C99.86768555 31.44663086 99.85866211 32.51655273 99.84936523 33.61889648 C99.82590241 36.24673337 99.79307357 38.87410305 99.75170898 41.50170898 C99.45522461 40.89584961 99.15874023 40.28999023 98.85327148 39.66577148 C97.73131624 37.38726843 97.73131624 37.38726843 96.12670898 34.87670898 C94.75170898 32.50170898 94.75170898 32.50170898 94.75170898 30.50170898 C93.26670898 30.00670898 93.26670898 30.00670898 91.75170898 29.50170898 C91.25670898 28.51170898 91.25670898 28.51170898 90.75170898 27.50170898 C84.35522619 24.74676809 78.00981467 24.06592796 71.12695312 24.12939453 C70.22322968 24.12574387 69.31950623 24.1220932 68.38839722 24.11833191 C65.43768815 24.11030537 62.48754171 24.12376274 59.53686523 24.13842773 C57.47326152 24.13894697 55.40965731 24.13842681 53.34605408 24.13691711 C49.04003432 24.13700646 44.73420325 24.14736524 40.42822266 24.16552734 C34.90442362 24.18831327 29.38089746 24.18873659 23.85706425 24.1820097 C19.60464543 24.17867374 15.3522891 24.1852911 11.09988213 24.19513893 C9.06208053 24.19899018 7.02427198 24.20013946 4.98646736 24.19855309 C2.1477434 24.19818326 -0.69062607 24.21077602 -3.52929688 24.22705078 C-4.37241928 24.22457336 -5.21554169 24.22209595 -6.08421326 24.21954346 C-9.98576861 24.25534011 -11.92792197 24.28812962 -15.24829102 26.50170898 C-16.23829102 26.50170898 -17.22829102 26.50170898 -18.24829102 26.50170898 C-18.90829102 27.82170898 -19.56829102 29.14170898 -20.24829102 30.50170898 C-20.90829102 30.50170898 -21.56829102 30.50170898 -22.24829102 30.50170898 C-22.51641602 31.61545898 -22.78454102 32.72920898 -23.06079102 33.87670898 C-24.24829102 37.50170898 -24.24829102 37.50170898 -27.24829102 39.50170898 C-27.36608202 36.18951667 -27.43606256 32.87787407 -27.49829102 29.56420898 C-27.53180664 28.63801758 -27.56532227 27.71182617 -27.59985352 26.75756836 C-27.68863525 20.4318695 -26.99271951 14.79031419 -23.24829102 9.50170898 C-21.92005423 8.82494518 -20.58708634 8.15733793 -19.24829102 7.50170898 C-18.91829102 6.51170898 -18.58829102 5.52170898 -18.24829102 4.50170898 C-12.53274824 0.72586746 -6.68782745 -0.08022134 0 0 Z " fill="#403935" transform="translate(207.248291015625,36.498291015625)"/>
<path d="M0 0 C1.75032768 2.28775224 3.31913609 4.52822525 4.8125 7 C8.52341029 12.08924839 13.01525523 14.38813871 19 16 C22.07337556 16.2935736 25.13240548 16.31098721 28.21826172 16.31884766 C29.12621994 16.32889328 30.03417816 16.3389389 30.96965027 16.34928894 C33.95632319 16.38006052 36.94290672 16.39713938 39.9296875 16.4140625 C42.00620286 16.43277898 44.08271065 16.45235276 46.15921021 16.4727478 C51.61384618 16.52402416 57.06850679 16.56367403 62.52325439 16.60089111 C68.09368972 16.64095889 73.66402292 16.6920386 79.234375 16.7421875 C90.15617821 16.83889359 101.07803915 16.92331546 112 17 C112 16.34 112 15.68 112 15 C112.94875 14.731875 113.8975 14.46375 114.875 14.1875 C118.25267273 13.25013412 118.25267273 13.25013412 120 10 C120.66 10 121.32 10 122 10 C122.28875 9.278125 122.5775 8.55625 122.875 7.8125 C124.4375 3.90625 124.4375 3.90625 126 0 C126.33 0 126.66 0 127 0 C127.0580966 3.9166043 127.09362893 7.83309763 127.125 11.75 C127.14175781 12.86117188 127.15851563 13.97234375 127.17578125 15.1171875 C127.18222656 16.18710937 127.18867188 17.25703125 127.1953125 18.359375 C127.20578613 19.34389648 127.21625977 20.32841797 127.22705078 21.34277344 C126.99489618 24.05973111 126.39036273 25.68112513 125 28 C124.34 28 123.68 28 123 28 C122.34 29.65 121.68 31.3 121 33 C120.34 33 119.68 33 119 33 C119 33.66 119 34.32 119 35 C109.81405337 41.65974737 99.67283366 40.69404964 88.87109375 40.59375 C86.91154555 40.5920362 84.95199506 40.59210731 82.9924469 40.59387207 C78.8997686 40.59222467 74.80764191 40.57363225 70.71508789 40.54199219 C65.48770524 40.50229055 60.26104272 40.49795386 55.03353786 40.50545502 C50.99186184 40.5085345 46.95034556 40.49636986 42.90870857 40.47932434 C40.98193426 40.47232913 39.05514185 40.46916555 37.12835503 40.47001648 C34.42956101 40.46820472 31.73160645 40.44670706 29.03295898 40.41992188 C28.24881119 40.42285248 27.46466339 40.42578308 26.65675354 40.42880249 C19.78293641 40.32433211 13.4537215 39.08032909 8.125 34.5625 C7.42375 33.716875 6.7225 32.87125 6 32 C5.46375 31.360625 4.9275 30.72125 4.375 30.0625 C-0.05237923 23.42143116 -0.38390142 18.43069731 -0.1875 10.625 C-0.16719727 9.09166016 -0.16719727 9.09166016 -0.14648438 7.52734375 C-0.11130217 5.01767951 -0.06207539 2.5091191 0 0 Z " fill="#3F3935" transform="translate(180,424)"/>
<path d="M0 0 C0 0.66 0 1.32 0 2 C0.71027344 2.09539062 1.42054688 2.19078125 2.15234375 2.2890625 C10.29594318 4.32216963 17.5410491 11.19765697 23.75 16.6875 C24.27537354 17.13851074 24.80074707 17.58952148 25.34204102 18.05419922 C27.7822138 20.28921567 28.94053484 21.48675908 29.328125 24.83203125 C29.16570312 25.90517578 29.16570312 25.90517578 29 27 C28.34 27 27.68 27 27 27 C26.34 28.32 25.68 29.64 25 31 C21.9375 31.4375 21.9375 31.4375 18 31 C15.97734199 29.40924148 14.35559283 27.66581992 12.640625 25.75 C10.67457231 23.65287713 8.49632545 22.3950054 6 21 C5.505 20.01 5.505 20.01 5 19 C-10.6136098 9.9605417 -24.92123102 5.63404455 -42.875 5.75 C-44.65970703 5.73839844 -44.65970703 5.73839844 -46.48046875 5.7265625 C-57.13834669 5.74985841 -67.29928536 6.61489525 -77.0625 11.125 C-77.73659912 11.42849365 -78.41069824 11.7319873 -79.10522461 12.04467773 C-86.96760716 15.72177582 -93.54423691 20.82323399 -100.0625 26.5 C-103 29 -103 29 -105 29 C-105 29.66 -105 30.32 -105 31 C-111.28813559 31.3559322 -111.28813559 31.3559322 -114 30 C-115.32777583 27.34444833 -115.08606597 25.03945093 -114.8125 22.1328125 C-111.22236764 12.70871506 -95.79594965 4.29070715 -87 0 C-81.44118902 -2.32170599 -75.74552955 -4.20158003 -70 -6 C-68.94039062 -6.34417969 -67.88078125 -6.68835938 -66.7890625 -7.04296875 C-44.27553841 -13.33611918 -21.41302505 -7.19198341 0 0 Z " fill="#413A36" transform="translate(287,214)"/>
<path d="M0 0 C0 0.66 0 1.32 0 2 C0.680625 2.165 1.36125 2.33 2.0625 2.5 C6.42472908 4.72752123 9.29517139 7.94275709 12 12 C12.6875 15.3125 12.6875 15.3125 12 18 C9.96755911 20.25826765 8.68157292 20.90705824 5.6796875 21.31640625 C2.08337846 20.89176918 0.53530436 19.40633613 -2.1875 17.0625 C-5.39904159 14.23659905 -5.39904159 14.23659905 -9 12 C-9 11.34 -9 10.68 -9 10 C-10.155 9.71125 -11.31 9.4225 -12.5 9.125 C-15.26169568 8.43457608 -18.00571169 7.72133405 -20.75 6.9609375 C-33.66290405 3.7627415 -47.44038181 5.3434962 -59 12 C-62.05989757 14.20094709 -64.80278752 16.67862938 -67.47265625 19.33984375 C-70 21 -70 21 -73.68359375 20.94140625 C-77 20 -77 20 -79 17 C-79.625 14.3125 -79.625 14.3125 -79 11 C-59.34822532 -14.24572044 -25.92228414 -12.49824414 0 0 Z " fill="#3F3934" transform="translate(277,250)"/>
<path d="M0 0 C0.87398438 0.63421875 0.87398438 0.63421875 1.765625 1.28125 C2.35859375 1.7040625 2.9515625 2.126875 3.5625 2.5625 C6.03514537 4.6363316 6.03100298 5.95040775 6.328125 9.21875 C6.015625 12.78125 6.015625 12.78125 4.328125 14.71875 C1.59743613 15.97339083 -0.01369651 16.23827746 -2.984375 15.78125 C-4.609375 14.34375 -4.609375 14.34375 -5.984375 12.78125 C-9.06943588 11.75289637 -11.2538022 11.64756566 -14.484375 11.65625 C-15.4434375 11.65367187 -16.4025 11.65109375 -17.390625 11.6484375 C-20.10008652 11.67132028 -20.10008652 11.67132028 -22.984375 12.78125 C-23.396875 13.3175 -23.809375 13.85375 -24.234375 14.40625 C-25.984375 15.78125 -25.984375 15.78125 -29.546875 15.65625 C-32.984375 14.78125 -32.984375 14.78125 -34.984375 11.78125 C-35.546875 8.96875 -35.546875 8.96875 -34.984375 5.78125 C-26.6374627 -4.44248282 -11.2289425 -6.89651586 0 0 Z " fill="#403B35" transform="translate(257.984375,280.21875)"/>
<path d="M0 0 C11.98749087 -0.06960295 23.97493342 -0.12286364 35.96258545 -0.15543652 C41.52932895 -0.17107224 47.09593389 -0.19227242 52.66259766 -0.22631836 C58.03776405 -0.25898623 63.41279739 -0.27686876 68.78805542 -0.28463173 C70.83570448 -0.29016189 72.88334651 -0.30096092 74.93093872 -0.31719017 C77.80567998 -0.33906303 80.67987601 -0.34196279 83.5546875 -0.34057617 C84.81597221 -0.35675491 84.81597221 -0.35675491 86.10273743 -0.3732605 C91.71004328 -0.34411861 95.90427792 0.59791768 101 3 C101.99 4.485 101.99 4.485 103 6 C102.34 6.33 101.68 6.66 101 7 C100.505 6.01 100.505 6.01 100 5 C94.60526414 3.00522962 89.73236859 2.71739874 84.02294922 2.75708008 C83.15213715 2.75518173 82.28132507 2.75328339 81.38412476 2.75132751 C78.52421886 2.74764223 75.66457058 2.75829106 72.8046875 2.76953125 C70.80884837 2.77072434 68.81300866 2.77117594 66.81716919 2.7709198 C62.64288802 2.77248073 58.46869308 2.7807415 54.29443359 2.79418945 C48.94679897 2.81120067 43.59925878 2.8150029 38.25160027 2.81424427 C34.13379009 2.81451628 30.0160005 2.82000211 25.89819717 2.82724571 C23.92624187 2.8304247 21.95428424 2.83239799 19.98232651 2.83313942 C17.22759785 2.83530989 14.47296891 2.84406884 11.71826172 2.85473633 C10.90566895 2.85428314 10.09307617 2.85382996 9.25585938 2.85336304 C5.38195011 2.87527482 1.76554757 3.05448402 -2 4 C-1.34 2.68 -0.68 1.36 0 0 Z " fill="#83D95C" transform="translate(195,60)"/>
<path d="M0 0 C0.99 0.495 0.99 0.495 2 1 C0.6875 2.5 0.6875 2.5 -1 4 C-1.99 4 -2.98 4 -4 4 C-4 4.66 -4 5.32 -4 6 C-16.00476169 6.06956859 -28.00947526 6.12284623 -40.01439762 6.15543652 C-45.58901665 6.17107971 -51.16349756 6.19229362 -56.73803711 6.22631836 C-62.11968274 6.25895948 -67.50119567 6.27686314 -72.88293266 6.28463173 C-74.93419928 6.29016667 -76.98545879 6.30097509 -79.03666878 6.31719017 C-81.91400872 6.33902741 -84.79080316 6.34196427 -87.66821289 6.34057617 C-88.51266464 6.351362 -89.35711639 6.36214783 -90.22715759 6.3732605 C-95.56196629 6.34548669 -99.23192434 5.4172754 -104 3 C-101 2 -101 2 -98 3 C-95.22237207 3.09651532 -92.47004228 3.13641332 -89.69238281 3.12939453 C-88.42112045 3.13202301 -88.42112045 3.13202301 -87.12417603 3.13470459 C-84.31713829 3.13911224 -81.5101634 3.13618786 -78.703125 3.1328125 C-76.75120024 3.1334861 -74.79927555 3.1344566 -72.84735107 3.13571167 C-68.75174157 3.13718738 -64.65615385 3.13503908 -60.56054688 3.13037109 C-55.32061644 3.12468897 -50.0807374 3.12794398 -44.84080887 3.13394356 C-40.80698259 3.13756547 -36.77316839 3.13640283 -32.73934174 3.13381577 C-30.80811304 3.13315022 -28.87688323 3.13396186 -26.94565582 3.13629532 C-24.23880636 3.13884691 -21.53203872 3.13494533 -18.82519531 3.12939453 C-17.63571793 3.13243088 -17.63571793 3.13243088 -16.42221069 3.13552856 C-7.7884885 3.22178025 -7.7884885 3.22178025 0 0 Z " fill="#86D65D" transform="translate(296,435)"/>
<path d="M0 0 C0.495 1.485 0.495 1.485 1 3 C0.34 3 -0.32 3 -1 3 C-1 3.66 -1 4.32 -1 5 C-10.91358141 6.21516291 -20.79730578 6.14601077 -30.765625 6.1328125 C-32.57159437 6.13348747 -34.37756365 6.1344591 -36.18353271 6.13571167 C-39.94886143 6.13717806 -43.71416627 6.13506733 -47.47949219 6.13037109 C-52.29321301 6.12465796 -57.10687826 6.12796954 -61.92059708 6.13394356 C-65.64215511 6.13756382 -69.36370005 6.13640412 -73.08525848 6.13381577 C-74.86018633 6.13315141 -76.63511538 6.13395766 -78.41004181 6.13629532 C-80.89090616 6.13884779 -83.37168132 6.13494555 -85.85253906 6.12939453 C-86.5768512 6.13141876 -87.30116333 6.13344299 -88.04742432 6.13552856 C-92.47444389 6.11726959 -96.6452241 5.71625715 -101 5 C-98.18582945 3.41326315 -96.17605656 2.75086616 -92.95037842 2.75949097 C-92.15394928 2.75674164 -91.35752014 2.75399231 -90.53695679 2.75115967 C-89.67236847 2.75835022 -88.80778015 2.76554077 -87.91699219 2.77294922 C-86.99957245 2.77265717 -86.08215271 2.77236511 -85.13693237 2.77206421 C-82.10681679 2.77345671 -79.07694759 2.78901429 -76.046875 2.8046875 C-73.94509007 2.80841791 -71.8433034 2.81126475 -69.74151611 2.81326294 C-64.21113275 2.82089718 -58.68085453 2.84054395 -53.1505127 2.8626709 C-47.50660627 2.88313378 -41.86268284 2.89226561 -36.21875 2.90234375 C-25.14578715 2.92378997 -14.07290232 2.95792347 -3 3 C-3 2.34 -3 1.68 -3 1 C-2.01 0.67 -1.02 0.34 0 0 Z " fill="#373525" transform="translate(295,438)"/>
<path d="M0 0 C1.00289063 0.10183594 2.00578125 0.20367187 3.0390625 0.30859375 C3.80992187 0.39238281 4.58078125 0.47617187 5.375 0.5625 C-10.25689657 12.93059399 -36.43089399 13.07960756 -55.34570312 11.30761719 C-63.86688916 10.2889854 -71.64921905 8.77621761 -79.625 5.5625 C-75.98379622 4.42861637 -73.7242307 4.98923079 -70.0625 6.015625 C-65.32591989 7.07831926 -60.45996893 7.2562853 -55.625 7.5625 C-55.625 8.2225 -55.625 8.8825 -55.625 9.5625 C-32.24089263 10.45953818 -32.24089263 10.45953818 -10.625 3.5625 C-9.635 3.5625 -8.645 3.5625 -7.625 3.5625 C-7.625 2.5725 -7.625 1.5825 -7.625 0.5625 C-4.89657939 -0.80171031 -3.01546682 -0.31557211 0 0 Z " fill="#D5FAC7" transform="translate(286.625,351.4375)"/>
<path d="M0 0 C1.18719897 3.70999678 1.26716944 7.12604318 1 11 C0.50733643 11.91088379 0.01467285 12.82176758 -0.49291992 13.76025391 C-2.27258805 17.5859782 -2.37299244 20.25467896 -2.36328125 24.4609375 C-2.36402901 25.5232811 -2.36402901 25.5232811 -2.36479187 26.60708618 C-2.36246029 28.10478522 -2.35278591 29.60248885 -2.33618164 31.10009766 C-2.31292641 33.33403831 -2.31558581 35.56675291 -2.32226562 37.80078125 C-2.30385642 46.50075298 -1.67930952 54.92368766 -0.42651367 63.53369141 C-0.03269491 66.73428598 0.07751728 69.78009914 0 73 C-1.90906586 70.13640121 -2.43721077 68.711073 -3.0625 65.4375 C-3.21847656 64.65246094 -3.37445313 63.86742187 -3.53515625 63.05859375 C-4.72760522 55.21247991 -5.19464122 47.43175739 -5.1875 39.5 C-5.18669434 38.55165283 -5.18588867 37.60330566 -5.18505859 36.6262207 C-4.91453995 4.91453995 -4.91453995 4.91453995 0 0 Z " fill="#ACE38C" transform="translate(107,212)"/>
<path d="M0 0 C0.66 0 1.32 0 2 0 C2.40983607 8.19672131 2.40983607 8.19672131 -1 12 C-1.682619 13.66019683 -2.34716443 15.32786725 -3 17 C-3.79565072 18.63331601 -4.60851396 20.25834809 -5.4375 21.875 C-6.94843417 24.82241652 -8.27559425 27.69182654 -9.375 30.8125 C-11.5434758 35.06604868 -13.98000657 36.49698522 -18 39 C-16.55673241 36.08639834 -15.06191635 33.20477925 -13.5390625 30.33203125 C-13.06726563 29.43806641 -12.59546875 28.54410156 -12.109375 27.62304688 C-11.12956058 25.76784562 -10.14782802 23.91365599 -9.1640625 22.06054688 C-3.26688812 11.50734403 -3.26688812 11.50734403 0 0 Z " fill="#E3FBD4" transform="translate(378,292)"/>
<path d="M0 0 C1.16054472 3.48163416 0.76503089 4.97718533 0.0703125 8.54296875 C-1.35125787 17.14765055 -1.21957377 25.6215278 -1.125 34.3125 C-1.11494009 35.93944755 -1.10581961 37.5664012 -1.09765625 39.19335938 C-1.07590427 43.12906025 -1.04154447 47.06446034 -1 51 C-4.46001528 44.31063713 -4.18613363 38.1113583 -4.18530273 30.7487793 C-4.18748859 28.57385676 -4.20565497 26.39944217 -4.22460938 24.22460938 C-4.22754373 22.8385434 -4.22952824 21.45247502 -4.23046875 20.06640625 C-4.23457764 18.80771729 -4.23868652 17.54902832 -4.24291992 16.25219727 C-4.01210011 13.16199553 -3.56376401 11.60205266 -2 9 C-1.57848115 7.42841122 -1.2031166 5.84370918 -0.875 4.25 C-0.70742187 3.45078125 -0.53984375 2.6515625 -0.3671875 1.828125 C-0.24601563 1.22484375 -0.12484375 0.6215625 0 0 Z " fill="#B7E999" transform="translate(134,221)"/>
<path d="M0 0 C0 0.99 0 1.98 0 3 C-3.66486096 5.91033076 -6.39374606 6.32136655 -11 6 C-10.90460938 6.60585938 -10.80921875 7.21171875 -10.7109375 7.8359375 C-9.85425648 14.31085221 -10.37530521 19.68920206 -12 26 C-12.66 26 -13.32 26 -14 26 C-13.938125 26.7425 -13.87625 27.485 -13.8125 28.25 C-14.03094296 31.45383006 -14.90250005 32.64031256 -17 35 C-16.37153424 29.59156867 -15.54661645 24.27938893 -14.5 18.9375 C-13.73079865 14.98867923 -13.00747757 11.05536701 -12.46875 7.06640625 C-12 4 -12 4 -11 3 C-8.42794627 2.4284325 -5.84216087 1.97130198 -3.25 1.5 C-1.04154394 1.22050243 -1.04154394 1.22050243 0 0 Z " fill="#E6F9D6" transform="translate(397,254)"/>
<path d="M0 0 C4.24727726 2.12363863 5.46666137 8.74129203 7 13 C8.81786028 19.38558026 9.21340592 25.38441649 9 32 C9.66 32 10.32 32 11 32 C11 41.24 11 50.48 11 60 C10.67 60 10.34 60 10 60 C9.95101563 58.98164063 9.90203125 57.96328125 9.8515625 56.9140625 C9.35553172 30.40590816 9.35553172 30.40590816 1 6 C0.3125 2.6875 0.3125 2.6875 0 0 Z " fill="#D6FAC9" transform="translate(345,204)"/>
<path d="M0 0 C0.8125 1.6875 0.8125 1.6875 1 4 C-1.0625 6.3125 -1.0625 6.3125 -4 9 C-5.10195589 10.19137474 -6.18517644 11.40032399 -7.25 12.625 C-7.75015625 13.19476563 -8.2503125 13.76453125 -8.765625 14.3515625 C-10.20736914 16.09626096 -10.20736914 16.09626096 -11 19 C-13.14453125 20.1328125 -13.14453125 20.1328125 -15.8125 21.125 C-16.68519531 21.45757812 -17.55789063 21.79015625 -18.45703125 22.1328125 C-20.62862868 22.87335725 -22.76504539 23.48945093 -25 24 C-24.67 23.34 -24.34 22.68 -24 22 C-23.34 22 -22.68 22 -22 22 C-21.67 21.01 -21.34 20.02 -21 19 C-20.01 19 -19.02 19 -18 19 C-18 18.34 -18 17.68 -18 17 C-12.58823529 13 -12.58823529 13 -10 13 C-9.773125 12.443125 -9.54625 11.88625 -9.3125 11.3125 C-7.63832737 8.36276727 -5.42167689 6.3626116 -3 4 C-1.97186389 2.68824014 -0.95915568 1.3630107 0 0 Z " fill="#AFE787" transform="translate(330,321)"/>
<path d="M0 0 C1.49593525 2.99187051 0.24292221 5.18624195 -0.58911133 8.27490234 C-4.92749488 24.61814812 -5.36784443 41.19087966 -6 58 C-6.33 58 -6.66 58 -7 58 C-7.0246519 53.17619198 -7.04283693 48.35242033 -7.05493164 43.52856445 C-7.05997174 41.88630536 -7.06680378 40.24405077 -7.07543945 38.60180664 C-7.08751926 36.24624521 -7.09323139 33.89074291 -7.09765625 31.53515625 C-7.10281754 30.79660904 -7.10797882 30.05806183 -7.11329651 29.2971344 C-7.1134925 27.53101912 -7.06194719 25.76502854 -7 24 C-6.67 23.67 -6.34 23.34 -6 23 C-5.79300437 21.50503158 -5.63320741 20.0033408 -5.5 18.5 C-5.11111111 14.11111111 -5.11111111 14.11111111 -4 13 C-3.84289112 11.56565414 -3.72395279 10.12702756 -3.625 8.6875 C-3.26369059 4.96778998 -2.72836252 2.72836252 0 0 Z " fill="#EAFDDF" transform="translate(108,204)"/>
<path d="M0 0 C0.33 0.66 0.66 1.32 1 2 C-1.33848377 7.1446643 -4.54337226 10.59888936 -9 14 C-10.01866229 15.65532623 -11.01810813 17.32260138 -12 19 C-15.31065768 22.66856662 -18.76122597 25.45673558 -23 28 C-23.66 28 -24.32 28 -25 28 C-25 26 -25 26 -23.5390625 24.4921875 C-22.59160156 23.69167969 -22.59160156 23.69167969 -21.625 22.875 C-20.99851562 22.33617187 -20.37203125 21.79734375 -19.7265625 21.2421875 C-18 20 -18 20 -16 20 C-15.690625 19.1646875 -15.690625 19.1646875 -15.375 18.3125 C-13.8183188 15.69444526 -11.88437249 14.28467642 -9.515625 12.421875 C-7.8670282 10.87525326 -6.94359083 9.42202583 -5.875 7.4375 C-4.17659786 4.32376275 -2.61879917 2.33821354 0 0 Z " fill="#DEF8D1" transform="translate(359,332)"/>
<path d="M0 0 C2 1 2 1 2.84277344 3.17114258 C4.9234603 11.07178889 5.40735528 18.5010377 5.28125 26.65551758 C5.24987448 28.69566198 5.24023601 30.73502759 5.234375 32.77539062 C5.09296447 50.81407106 5.09296447 50.81407106 3 55 C2.34 55 1.68 55 1 55 C1.88835587 47.38552115 1.88835587 47.38552115 2.5 45.2734375 C3.14778758 42.32802833 3.22049832 39.49862435 3.31640625 36.484375 C3.35830078 35.23398437 3.40019531 33.98359375 3.44335938 32.6953125 C3.50233398 30.74238281 3.50233398 30.74238281 3.5625 28.75 C3.60568359 27.43257812 3.64886719 26.11515625 3.69335938 24.7578125 C3.79941917 21.50531212 3.90148024 18.25273608 4 15 C3.34 15 2.68 15 2 15 C1.34 10.05 0.68 5.1 0 0 Z " fill="#ADE68B" transform="translate(352,221)"/>
<path d="M0 0 C0.99 0.33 1.98 0.66 3 1 C3 3.31 3 5.62 3 8 C-1.70327357 10.63842176 -4.33917966 11.19131138 -10 12 C-10.66 16.62 -11.32 21.24 -12 26 C-12.33 26 -12.66 26 -13 26 C-13.08076963 23.54101345 -13.14037143 21.08466258 -13.1875 18.625 C-13.21263672 17.92632812 -13.23777344 17.22765625 -13.26367188 16.5078125 C-13.29296875 14.4765625 -13.29296875 14.4765625 -13 11 C-10.09907498 9.06604999 -9.10325263 8.69868059 -5.8125 8.375 C-4.554375 8.25125 -3.29625 8.1275 -2 8 C-1.34 5.36 -0.68 2.72 0 0 Z " fill="#AAE184" transform="translate(396,246)"/>
<path d="M0 0 C0.99 0 1.98 0 3 0 C2.75 2.3125 2.75 2.3125 2 5 C0 6.5 0 6.5 -2 8 C-2.8042208 10.59855733 -2.8042208 10.59855733 -3 13 C-3.66 13 -4.32 13 -5 13 C-4.9071875 14.5778125 -4.9071875 14.5778125 -4.8125 16.1875 C-5.00939989 20.19113117 -5.53802793 21.89973887 -8 25 C-8.99 25.33 -9.98 25.66 -11 26 C-10.35694162 21.47252143 -8.59305989 17.64093817 -6.625 13.5625 C-6.32078125 12.91990234 -6.0165625 12.27730469 -5.703125 11.61523438 C-3.85163759 7.71840723 -1.94135892 3.85294239 0 0 Z " fill="#ADE38E" transform="translate(121,178)"/>
<path d="M0 0 C0 0.33 0 0.66 0 1 C-8.25 0.67 -16.5 0.34 -25 0 C-25.33 0.99 -25.66 1.98 -26 3 C-27.66611905 3.042721 -29.33382885 3.04063832 -31 3 C-31.33 2.67 -31.66 2.34 -32 2 C-33.32594105 1.63837971 -34.65938457 1.30271961 -36 1 C-24.05337757 -2.4366996 -12.00054693 -3.89165023 0 0 Z " fill="#686560" transform="translate(259,243)"/>
<path d="M0 0 C4.21799748 6.32699622 4.35267435 13.61316685 4.625 21 C4.66367187 21.87011719 4.70234375 22.74023438 4.7421875 23.63671875 C4.83540887 25.75750486 4.91874136 27.87872185 5 30 C4.34 30 3.68 30 3 30 C2.67 28.35 2.34 26.7 2 25 C1.67 25 1.34 25 1 25 C0.67 16.75 0.34 8.5 0 0 Z " fill="#ADE386" transform="translate(380,214)"/>
<path d="M0 0 C3 4 3 4 4.8125 7 C7.30530661 10.4187062 9.40063812 11.87310434 13 14 C11.234375 14.65234375 11.234375 14.65234375 9 15 C6.38060145 13.6423849 4.33137626 11.83820051 2 10 C1.67 13.96 1.34 17.92 1 22 C0.67 22 0.34 22 0 22 C0 14.74 0 7.48 0 0 Z " fill="#4E5F42" transform="translate(180,424)"/>
<path d="M0 0 C1.00289063 0.10183594 2.00578125 0.20367187 3.0390625 0.30859375 C3.80992187 0.39238281 4.58078125 0.47617187 5.375 0.5625 C2.19290013 3.29220495 -0.63209797 4.32754486 -4.6875 5.3125 C-5.73035156 5.57546875 -6.77320313 5.8384375 -7.84765625 6.109375 C-10.625 6.5625 -10.625 6.5625 -13.625 5.5625 C-10.625 3.5625 -10.625 3.5625 -7.625 3.5625 C-7.625 2.5725 -7.625 1.5825 -7.625 0.5625 C-4.89657939 -0.80171031 -3.01546682 -0.31557211 0 0 Z " fill="#DFFBD2" transform="translate(286.625,351.4375)"/>
<path d="M0 0 C-0.33 1.32 -0.66 2.64 -1 4 C-1.598125 4.061875 -2.19625 4.12375 -2.8125 4.1875 C-5.25328379 4.80770909 -5.25328379 4.80770909 -6.1875 7.4375 C-8.67763281 10.95803259 -11.02895781 11.02417289 -15.13671875 11.73828125 C-15.75160156 11.82464844 -16.36648438 11.91101563 -17 12 C-13.59764325 8.39750462 -10.17111019 5.66241076 -6 3 C-5.2575 2.4225 -4.515 1.845 -3.75 1.25 C-2 0 -2 0 0 0 Z " fill="#E2F7CE" transform="translate(334,360)"/>
<path d="M0 0 C0.33 0.66 0.66 1.32 1 2 C0.01 2.598125 -0.98 3.19625 -2 3.8125 C-2.99 4.534375 -3.98 5.25625 -5 6 C-5 6.99 -5 7.98 -5 9 C-6.28817344 10.37701298 -7.62804426 11.70644173 -9 13 C-10.02323436 14.31558703 -11.03126968 15.64377755 -12 17 C-12.40975095 12.82054034 -12.58535315 10.74499491 -9.9375 7.375 C-6.70697826 4.76308881 -3.42521955 2.35064086 0 0 Z " fill="#49443F" transform="translate(185,224)"/>
<path d="M0 0 C0.33 0 0.66 0 1 0 C1.05379226 2.95857409 1.09357093 5.91617721 1.125 8.875 C1.14175781 9.71675781 1.15851563 10.55851562 1.17578125 11.42578125 C1.18222656 12.23144531 1.18867188 13.03710938 1.1953125 13.8671875 C1.20578613 14.61081543 1.21625977 15.35444336 1.22705078 16.12060547 C1 18 1 18 -1 20 C-1.04898437 19.07316406 -1.09796875 18.14632813 -1.1484375 17.19140625 C-1.22320312 15.99386719 -1.29796875 14.79632813 -1.375 13.5625 C-1.44460938 12.36753906 -1.51421875 11.17257812 -1.5859375 9.94140625 C-1.72257812 8.97074219 -1.85921875 8.00007813 -2 7 C-2.66 6.67 -3.32 6.34 -4 6 C-2.69593116 3.98079663 -1.36176581 1.98075027 0 0 Z " fill="#363527" transform="translate(305,428)"/>
<path d="M0 0 C1.71676502 3.43353004 0.22695022 6.65968575 -0.765625 10.22265625 C-2.71357458 14.6055428 -5.91061084 16.69789731 -10 19 C-8.05657711 15.03132589 -5.95916091 11.14583435 -3.875 7.25 C-3.50246094 6.55261719 -3.12992187 5.85523438 -2.74609375 5.13671875 C-1.83120092 3.42422705 -0.91566431 1.71207932 0 0 Z " fill="#DCF6CA" transform="translate(370,312)"/>
<path d="M0 0 C0.33 0.66 0.66 1.32 1 2 C1.66 2 2.32 2 3 2 C3.02578125 2.62648438 3.0515625 3.25296875 3.078125 3.8984375 C3.13484375 4.71570313 3.1915625 5.53296875 3.25 6.375 C3.29640625 7.18710937 3.3428125 7.99921875 3.390625 8.8359375 C3.7922092 11.18838927 3.7922092 11.18838927 6.046875 12.2890625 C6.69140625 12.52367187 7.3359375 12.75828125 8 13 C8 14.65 8 16.3 8 18 C7.34 18 6.68 18 6 18 C0 6.52427184 0 6.52427184 0 0 Z " fill="#DDFBD5" transform="translate(136,282)"/>
<path d="M0 0 C1.0209375 0.2165625 1.0209375 0.2165625 2.0625 0.4375 C5.36273082 1.06945909 8.67144426 1.54313941 12 2 C12 2.99 12 3.98 12 5 C12.66 5 13.32 5 14 5 C14 5.66 14 6.32 14 7 C8.70139194 5.7023817 4.65474354 3.84984298 0 1 C0 0.67 0 0.34 0 0 Z " fill="#E0FDD8" transform="translate(185,346)"/>
<path d="M0 0 C0.99 0.33 1.98 0.66 3 1 C3.05429959 2.74965358 3.09292823 4.49979787 3.125 6.25 C3.14820313 7.22453125 3.17140625 8.1990625 3.1953125 9.203125 C2.99862781 12.0196498 2.44568916 13.60949036 1 16 C0.14701624 12.32612505 -0.10789471 8.9552607 -0.0625 5.1875 C-0.05347656 4.21167969 -0.04445313 3.23585938 -0.03515625 2.23046875 C-0.02355469 1.49441406 -0.01195312 0.75835937 0 0 Z " fill="#E1FDE3" transform="translate(352,256)"/>
<path d="M0 0 C0.33 0.66 0.66 1.32 1 2 C0.07227356 4.39255767 -0.92090467 6.67646409 -2 9 C-2.73110016 10.64497536 -3.46025762 12.29081548 -4.1875 13.9375 C-4.79120246 15.29187368 -5.39520315 16.64611467 -6 18 C-7.43789489 14.18404817 -6.5317118 11.65512102 -5.25 7.875 C-4.90453125 6.82054687 -4.5590625 5.76609375 -4.203125 4.6796875 C-3 2 -3 2 0 0 Z " fill="#B5E593" transform="translate(142,200)"/>
<path d="M0 0 C1.485 0.99 1.485 0.99 3 2 C3 2.66 3 3.32 3 4 C3.66 4 4.32 4 5 4 C7.10827055 7.16240582 7.33817465 8.50657469 7.625 12.1875 C7.69976562 13.08855469 7.77453125 13.98960937 7.8515625 14.91796875 C7.90054687 15.60503906 7.94953125 16.29210937 8 17 C6.0549 14.08235 5.54723683 12.37462715 5 9 C4.34 9 3.68 9 3 9 C2.01 6.03 1.02 3.06 0 0 Z " fill="#DCF6C8" transform="translate(368,183)"/>
<path d="M0 0 C0.33 0.66 0.66 1.32 1 2 C0.34 2 -0.32 2 -1 2 C-1.2475 2.5775 -1.495 3.155 -1.75 3.75 C-3.27717864 6.49892155 -4.44886792 8.12021847 -7 10 C-9.75765038 10.33810273 -12.20473086 10.18635128 -15 10 C-15 9.67 -15 9.34 -15 9 C-14.195625 8.814375 -13.39125 8.62875 -12.5625 8.4375 C-7.68076139 6.46767565 -4.02326247 3.34377814 0 0 Z " fill="#E0E0DA" transform="translate(217,262)"/>
<path d="M0 0 C6.49850211 0.51553879 12.66226532 1.46667709 19 3 C19 3.33 19 3.66 19 4 C12.85959995 4.22742222 6.90141871 3.86360591 1 2 C0.67 1.34 0.34 0.68 0 0 Z " fill="#8CE15E" transform="translate(212,388)"/>
<path d="M0 0 C0.99 0.33 1.98 0.66 3 1 C-0.75 4 -0.75 4 -3 4 C-3 4.66 -3 5.32 -3 6 C-8.75 9 -8.75 9 -11 9 C-10.67 8.01 -10.34 7.02 -10 6 C-9.01 6 -8.02 6 -7 6 C-6.34 4.68 -5.68 3.36 -5 2 C-3.35 2 -1.7 2 0 2 C0 1.34 0 0.68 0 0 Z " fill="#D5FBC6" transform="translate(303,343)"/>
<path d="M0 0 C0.33 0 0.66 0 1 0 C1 1.98 1 3.96 1 6 C0.34 6 -0.32 6 -1 6 C-1.103125 7.258125 -1.20625 8.51625 -1.3125 9.8125 C-1.64858808 12.60499657 -1.80025876 13.74433121 -3.5625 16 C-4.036875 16.33 -4.51125 16.66 -5 17 C-5.66 16.34 -6.32 15.68 -7 15 C-6.34 14.67 -5.68 14.34 -5 14 C-4.34786708 11.97536745 -4.34786708 11.97536745 -4 10 C-3.34 10 -2.68 10 -2 10 C-2 7.36 -2 4.72 -2 2 C-1.34 2 -0.68 2 0 2 C0 1.34 0 0.68 0 0 Z " fill="#AAE389" transform="translate(379,286)"/>
<path d="M0 0 C2.64 0 5.28 0 8 0 C7.01 1.485 7.01 1.485 6 3 C5.34 3 4.68 3 4 3 C3.71125 3.804375 3.4225 4.60875 3.125 5.4375 C2 8 2 8 0 9 C0 6.03 0 3.06 0 0 Z " fill="#353E25" transform="translate(181,64)"/>
<path d="M0 0 C0.33 0 0.66 0 1 0 C1.0093457 0.55461914 1.01869141 1.10923828 1.02832031 1.68066406 C1.08215722 4.20466481 1.16577254 6.72683814 1.25 9.25 C1.26417969 10.12269531 1.27835937 10.99539062 1.29296875 11.89453125 C1.44166706 17.15509374 1.44166706 17.15509374 4.046875 21.609375 C4.69140625 22.06828125 5.3359375 22.5271875 6 23 C1.125 22.125 1.125 22.125 0 21 C-0.08685603 19.43827255 -0.10702219 17.87270656 -0.09765625 16.30859375 C-0.09443359 15.36435547 -0.09121094 14.42011719 -0.08789062 13.44726562 C-0.07951172 12.45404297 -0.07113281 11.46082031 -0.0625 10.4375 C-0.05798828 9.44041016 -0.05347656 8.44332031 -0.04882812 7.41601562 C-0.03700007 4.94395151 -0.02051849 2.47200482 0 0 Z " fill="#EAFBDE" transform="translate(308,104)"/>
<path d="M0 0 C0.33 0.66 0.66 1.32 1 2 C0.109375 3.83984375 0.109375 3.83984375 -1.25 5.9375 C-1.90742188 6.97197266 -1.90742188 6.97197266 -2.578125 8.02734375 C-3.92063972 9.88989851 -5.3288332 11.43205233 -7 13 C-7.66 12.67 -8.32 12.34 -9 12 C-6.36588975 7.55224006 -3.9036874 3.46994436 0 0 Z " fill="#E6FAD8" transform="translate(359,332)"/>
<path d="M0 0 C6.36352045 1.56086351 12.68369407 3.25837153 19 5 C19 5.33 19 5.66 19 6 C12.23784552 5.59060025 6.32837252 4.43046191 0 2 C0 1.34 0 0.68 0 0 Z " fill="#AAE28C" transform="translate(201,355)"/>
<path d="M0 0 C1.125 1.6875 1.125 1.6875 2 4 C1.00449408 7.80102261 0.34152484 8.77231678 -3 11 C-2.25 3.375 -2.25 3.375 0 0 Z " fill="#F5FEEF" transform="translate(383,283)"/>
<path d="M0 0 C0.8125 1.6875 0.8125 1.6875 1 4 C-1.9166062 7.60286648 -4.58256205 9.61166236 -9 11 C-6.36113346 6.7973607 -3.63559661 3.43361902 0 0 Z " fill="#B3E697" transform="translate(330,321)"/>
<path d="M0 0 C1.07868195 3.3048979 0.90419019 5.61763479 0.1875 9 C-0.06966797 10.2684375 -0.06966797 10.2684375 -0.33203125 11.5625 C-0.97664732 13.9147832 -1.82997719 15.8673002 -3 18 C-3.66 18 -4.32 18 -5 18 C-4.54678672 15.93636888 -4.08720894 13.87413493 -3.625 11.8125 C-3.36976563 10.66394531 -3.11453125 9.51539063 -2.8515625 8.33203125 C-2.10527548 5.41192652 -1.19568212 2.76046611 0 0 Z " fill="#ADE78C" transform="translate(352,278)"/>
<path d="M0 0 C3.00736164 1.50368082 3.40016389 3.76199294 4.6875 6.8125 C5.14511719 7.87082031 5.60273438 8.92914063 6.07421875 10.01953125 C6.99492545 12.98366296 7.12864571 14.17496557 6 17 C0 3.28571429 0 3.28571429 0 0 Z " fill="#CDF8BC" transform="translate(345,204)"/>
<path d="M0 0 C0.66 0.33 1.32 0.66 2 1 C-3.96583144 9.81548975 -3.96583144 9.81548975 -9 11 C-8.21654285 9.82780457 -7.42297164 8.66236332 -6.625 7.5 C-6.18414062 6.8503125 -5.74328125 6.200625 -5.2890625 5.53125 C-4.86367187 5.0259375 -4.43828125 4.520625 -4 4 C-3.34 4 -2.68 4 -2 4 C-1.34 2.68 -0.68 1.36 0 0 Z " fill="#D7F8CB" transform="translate(166,168)"/>
<path d="M0 0 C0.66 0.33 1.32 0.66 2 1 C0.35 1.66 -1.3 2.32 -3 3 C-3 3.66 -3 4.32 -3 5 C-9.96428571 7.27678571 -9.96428571 7.27678571 -14 6 C-13.15695312 5.65066406 -12.31390625 5.30132812 -11.4453125 4.94140625 C-10.34960938 4.48636719 -9.25390625 4.03132813 -8.125 3.5625 C-7.03445313 3.11003906 -5.94390625 2.65757812 -4.8203125 2.19140625 C-3.19441376 1.50456537 -1.57868226 0.78934113 0 0 Z " fill="#A5DE83" transform="translate(294,351)"/>
<path d="M0 0 C0.66 0.33 1.32 0.66 2 1 C1.3503125 1.7734375 1.3503125 1.7734375 0.6875 2.5625 C-1.40319031 5.582386 -2.62526065 8.5958835 -4 12 C-4.66 12 -5.32 12 -6 12 C-6.33 12.66 -6.66 13.32 -7 14 C-7.33 12.68 -7.66 11.36 -8 10 C-7.401875 9.814375 -6.80375 9.62875 -6.1875 9.4375 C-2.97129906 7.32399653 -2.34240103 4.51581222 -1 1 C-0.67 0.67 -0.34 0.34 0 0 Z " fill="#DAFCCA" transform="translate(340,304)"/>
<path d="M0 0 C1.1725131 0.95117134 2.33787015 1.91117009 3.5 2.875 C4.47453125 3.67550781 4.47453125 3.67550781 5.46875 4.4921875 C5.9740625 4.98976562 6.479375 5.48734375 7 6 C7 6.66 7 7.32 7 8 C5.35 8 3.7 8 2 8 C2 7.01 2 6.02 2 5 C1.34 4.67 0.68 4.34 0 4 C0 2.68 0 1.36 0 0 Z " fill="#B0E28F" transform="translate(345,152)"/>
<path d="M0 0 C0.66 0.33 1.32 0.66 2 1 C1.67 7.6 1.34 14.2 1 21 C0.67 21 0.34 21 0 21 C-0.19592461 17.68794116 -0.38032746 14.37534146 -0.5625 11.0625 C-0.61857422 10.11697266 -0.67464844 9.17144531 -0.73242188 8.19726562 C-0.78076172 7.29814453 -0.82910156 6.39902344 -0.87890625 5.47265625 C-0.9260376 4.64000244 -0.97316895 3.80734863 -1.02172852 2.94946289 C-1 1 -1 1 0 0 Z " fill="#7FD157" transform="translate(181,75)"/>
<path d="M0 0 C3.57983659 3.34118082 5.89716734 5.73768141 6.125 10.75 C6.08375 11.4925 6.0425 12.235 6 13 C3.19438607 11.59719304 2.99319493 9.9490995 1.875 7.0625 C1.52179688 6.16660156 1.16859375 5.27070313 0.8046875 4.34765625 C0 2 0 2 0 0 Z " fill="#C9F5B3" transform="translate(339,191)"/>
<path d="M0 0 C0.99 0.33 1.98 0.66 3 1 C2.6875 3.375 2.6875 3.375 2 6 C1.01 6.66 0.02 7.32 -1 8 C-1.93065133 5.39417629 -2.14917407 4.35801776 -1.0625 1.75 C-0.711875 1.1725 -0.36125 0.595 0 0 Z " fill="#E2FCE3" transform="translate(330,314)"/>
<path d="M0 0 C7.75 0.875 7.75 0.875 10 2 C9.01 3.485 9.01 3.485 8 5 C5.16032769 5 2.76264289 4.59732819 0 4 C0 2.68 0 1.36 0 0 Z " fill="#DBE4D7" transform="translate(224,294)"/>
<path d="M0 0 C2 1 4 2 6 3 C6 3.99 6 4.98 6 6 C7.32 6.33 8.64 6.66 10 7 C10 7.66 10 8.32 10 9 C7.525 8.01 7.525 8.01 5 7 C5 6.34 5 5.68 5 5 C4.34 5 3.68 5 3 5 C1.375 2.5 1.375 2.5 0 0 Z " fill="#CEF6BE" transform="translate(166,331)"/>
<path d="M0 0 C0.66 0 1.32 0 2 0 C2.49230769 7.38461538 2.49230769 7.38461538 0 10.5 C-0.66 10.995 -1.32 11.49 -2 12 C-1.44687265 7.97007218 -0.8441938 3.97977076 0 0 Z " fill="#E9FCDF" transform="translate(378,292)"/>
<path d="M0 0 C0.99 0 1.98 0 3 0 C2.75 2.375 2.75 2.375 2 5 C-0.0625 6.3125 -0.0625 6.3125 -2 7 C-1.125 2.25 -1.125 2.25 0 0 Z " fill="#A5DF85" transform="translate(121,178)"/>
<path d="M0 0 C0.99 0.33 1.98 0.66 3 1 C1.68 3.31 0.36 5.62 -1 8 C-1.33 8 -1.66 8 -2 8 C-2.125 5.125 -2.125 5.125 -2 2 C-1.34 1.34 -0.68 0.68 0 0 Z " fill="#A3DF7E" transform="translate(358,328)"/>
<path d="M0 0 C0.66 0 1.32 0 2 0 C2 0.66 2 1.32 2 2 C2.99 2 3.98 2 5 2 C5.33 3.65 5.66 5.3 6 7 C6.99 7.33 7.98 7.66 9 8 C8.34 8.66 7.68 9.32 7 10 C5.83043409 8.52312468 4.66441854 7.04343707 3.5 5.5625 C2.8503125 4.73878906 2.200625 3.91507813 1.53125 3.06640625 C0 1 0 1 0 0 Z " fill="#EDFDE4" transform="translate(351,157)"/>
<path d="M0 0 C2.83022097 3.99560608 1.76210446 7.42737323 1 12 C0.34 11.67 -0.32 11.34 -1 11 C-1.125 3.375 -1.125 3.375 0 0 Z " fill="#342D2C" transform="translate(182,53)"/>
<path d="M0 0 C1.98 1.65 3.96 3.3 6 5 C5.34 5.66 4.68 6.32 4 7 C3.01 7 2.02 7 1 7 C-0.0625 5.1875 -0.0625 5.1875 -1 3 C-0.67 2.01 -0.34 1.02 0 0 Z " fill="#EAE8E7" transform="translate(186,456)"/>
<path d="M0 0 C0.99 0.33 1.98 0.66 3 1 C1.625 2.5 1.625 2.5 0 4 C-0.66 4 -1.32 4 -2 4 C-2 4.66 -2 5.32 -2 6 C-2.99 6.33 -3.98 6.66 -5 7 C-4.67 5.35 -4.34 3.7 -4 2 C-2.68 2 -1.36 2 0 2 C0 1.34 0 0.68 0 0 Z " fill="#A1E280" transform="translate(336,354)"/>
<path d="M0 0 C2.64 1.98 5.28 3.96 8 6 C7.67 6.66 7.34 7.32 7 8 C3.83282717 6.41641358 2.26731682 5.54736301 0.6875 2.3125 C0.460625 1.549375 0.23375 0.78625 0 0 Z " fill="#BFE8A2" transform="translate(337,144)"/>
<path d="M0 0 C3.91841827 1.30613942 6.32640809 2.83129848 9 6 C9 6.66 9 7.32 9 8 C8.34 8 7.68 8 7 8 C6.34 7.01 5.68 6.02 5 5 C4.319375 4.67 3.63875 4.34 2.9375 4 C1 3 1 3 0 0 Z " fill="#DCF7CE" transform="translate(328,136)"/>
<path d="M0 0 C0.99 0.33 1.98 0.66 3 1 C2.67 2.32 2.34 3.64 2 5 C2.66 5 3.32 5 4 5 C3.67 6.32 3.34 7.64 3 9 C0.9375 6.1875 0.9375 6.1875 -1 3 C-0.67 2.01 -0.34 1.02 0 0 Z " fill="#313D24" transform="translate(302,64)"/>
<path d="M0 0 C2.9375 0.75 2.9375 0.75 6 2 C6.875 4.125 6.875 4.125 7 6 C5.35 5.67 3.7 5.34 2 5 C2 4.01 2 3.02 2 2 C1.34 2 0.68 2 0 2 C0 1.34 0 0.68 0 0 Z " fill="#DDF6D0" transform="translate(154,318)"/>
<path d="M0 0 C0.66 0 1.32 0 2 0 C0.68938409 4.23429756 -0.94356259 8.07407404 -3 12 C-4.21386936 8.35839192 -3.6674695 7.66834531 -2.0625 4.3125 C-1.49208984 3.10013672 -1.49208984 3.10013672 -0.91015625 1.86328125 C-0.60980469 1.24839844 -0.30945313 0.63351562 0 0 Z " fill="#D5FAC9" transform="translate(346,292)"/>
<path d="M0 0 C0.33 0.66 0.66 1.32 1 2 C1.66 2 2.32 2 3 2 C3.33 5.63 3.66 9.26 4 13 C1.12420019 8.68630028 0 5.19265239 0 0 Z " fill="#D8F5C2" transform="translate(136,282)"/>
<path d="M0 0 C0.99 0.66 1.98 1.32 3 2 C3.29296875 4.1640625 3.29296875 4.1640625 3.1875 6.625 C3.16042969 7.44226563 3.13335937 8.25953125 3.10546875 9.1015625 C3.07066406 9.72804688 3.03585937 10.35453125 3 11 C1.35 11.33 -0.3 11.66 -2 12 C-1.505 11.62875 -1.01 11.2575 -0.5 10.875 C1.62732389 8.21584514 1.27676873 6.32122475 1 3 C0.67 2.01 0.34 1.02 0 0 Z " fill="#AEB8AA" transform="translate(287,259)"/>
<path d="M0 0 C3 1 3 1 4.75 4.3125 C5.97848812 7.93653994 6.10235591 8.6258971 5 12 C4.16180842 10.37750059 3.3295884 8.75191503 2.5 7.125 C2.0359375 6.22007812 1.571875 5.31515625 1.09375 4.3828125 C0 2 0 2 0 0 Z " fill="#A9E485" transform="translate(345,202)"/>
<path d="M0 0 C0.33 0.66 0.66 1.32 1 2 C-0.4375 4.625 -0.4375 4.625 -2 7 C-3.32 6.67 -4.64 6.34 -6 6 C-4.02 4.02 -2.04 2.04 0 0 Z " fill="#D8F6C7" transform="translate(349,344)"/>
<path d="M0 0 C3.85658398 2.15078722 7.54319097 4.23455278 11 7 C7.65626525 6.44271087 4.96687001 5.64826111 2 4 C2 3.34 2 2.68 2 2 C1.34 2 0.68 2 0 2 C0 1.34 0 0.68 0 0 Z " fill="#A4E281" transform="translate(181,344)"/>
<path d="M0 0 C0.33 0.66 0.66 1.32 1 2 C3.01669827 3.13350534 3.01669827 3.13350534 5 4 C5 5.32 5 6.64 5 8 C4.34 8 3.68 8 3 8 C0.95830515 5.09451118 0 3.59857954 0 0 Z " fill="#B2E08D" transform="translate(121,320)"/>
<path d="M0 0 C3.465 1.98 3.465 1.98 7 4 C6.67 4.66 6.34 5.32 6 6 C5.34 5.67 4.68 5.34 4 5 C3.67 5.66 3.34 6.32 3 7 C3 6.34 3 5.68 3 5 C2.34 5 1.68 5 1 5 C0.67 3.35 0.34 1.7 0 0 Z " fill="#45453E" transform="translate(256,280)"/>
<path d="M0 0 C0.66 0.33 1.32 0.66 2 1 C1.34 2.32 0.68 3.64 0 5 C-1.98 5 -3.96 5 -6 5 C-2.25 1.125 -2.25 1.125 0 0 Z " fill="#B3E58A" transform="translate(173,127)"/>
<path d="M0 0 C6.75 0.75 6.75 0.75 9 3 C7.68 3.33 6.36 3.66 5 4 C5 3.34 5 2.68 5 2 C3.02 2.33 1.04 2.66 -1 3 C-0.67 2.01 -0.34 1.02 0 0 Z " fill="#5B5756" transform="translate(288,38)"/>
<path d="M0 0 C5.75 1.875 5.75 1.875 8 3 C8 3.66 8 4.32 8 5 C7.01 5.33 6.02 5.66 5 6 C5 5.34 5 4.68 5 4 C4.360625 3.71125 3.72125 3.4225 3.0625 3.125 C1 2 1 2 0 0 Z " fill="#E6FAD4" transform="translate(160,366)"/>
<path d="M0 0 C2.475 0.495 2.475 0.495 5 1 C5 1.66 5 2.32 5 3 C5.639375 3.12375 6.27875 3.2475 6.9375 3.375 C7.618125 3.58125 8.29875 3.7875 9 4 C9.33 4.66 9.66 5.32 10 6 C5.56909529 4.79157144 3.01887244 3.48331435 0 0 Z " fill="#CBF4B8" transform="translate(185,346)"/>
<path d="M0 0 C5.75 1.625 5.75 1.625 8 5 C7.01 5.495 7.01 5.495 6 6 C5.67 5.34 5.34 4.68 5 4 C3.02111039 3.27306096 1.02045442 2.60183749 -1 2 C-0.67 1.34 -0.34 0.68 0 0 Z " fill="#89D45D" transform="translate(290,61)"/>
<path d="M0 0 C2.0625 1.75 2.0625 1.75 4 4 C3.75 6.25 3.75 6.25 3 8 C1.5 6.8125 1.5 6.8125 0 5 C-0.1875 2.3125 -0.1875 2.3125 0 0 Z " fill="#D6F5C4" transform="translate(112,304)"/>
<path d="M0 0 C0.66 0.99 1.32 1.98 2 3 C0.02 3.99 0.02 3.99 -2 5 C-2 3.68 -2 2.36 -2 1 C-1.34 0.67 -0.68 0.34 0 0 Z M-4 5 C-3.34 5.33 -2.68 5.66 -2 6 C-2.99 6 -3.98 6 -5 6 C-4.67 5.67 -4.34 5.34 -4 5 Z " fill="#362C29" transform="translate(182,228)"/>
<path d="M0 0 C0 0.66 0 1.32 0 2 C-0.99 2 -1.98 2 -3 2 C-3 2.99 -3 3.98 -3 5 C-4.65 5.33 -6.3 5.66 -8 6 C-3.38461538 0 -3.38461538 0 0 0 Z " fill="#BCE8A1" transform="translate(156,140)"/>
<path d="M0 0 C0.66 0 1.32 0 2 0 C2.66 2.31 3.32 4.62 4 7 C3.01 7.495 3.01 7.495 2 8 C2 7.01 2 6.02 2 5 C1.34 5 0.68 5 0 5 C0 3.35 0 1.7 0 0 Z " fill="#86C955" transform="translate(303,72)"/>
</svg>
